# xmcd
#
# Track frame offsets:
#	150
#	20800
#	36685
#	58910
#	80097
#	93075
#	115300
#	133397
#	152475
#	169590
#	189445
#	213167
#	226985
#	248612
#	270332
#
# Disc length: 3849 seconds
# Revision: 5
# Processed by: cddbd v1.5.2PL0 Copyright (c) Steve Scherf et al.
# Submitted via: dBpowerAMP V12.0
#
DISCID=cc0f070f
DTITLE=Koko Taylor - Deluxe Edition [Alligator ALCD5610]
DYEAR=2002
DGENRE=Blues
TTITLE0=I'm A Woman
TTITLE1=Beer Bottle Boogie
TTITLE2=Born Under A Bad Sign (with Buddy Guy)
TTITLE3=Mother Nature (with Carey Bell)
TTITLE4=Hey Bartender (with Pinetop Perkins)
TTITLE5=I'd Rather Go Blind
TTITLE6=Man Size Job (prev unreleased)
TTITLE7=Let The Good Times Roll (live)
TTITLE8=Voodoo Woman (with Mighty Joe Young)
TTITLE9=Wang Dang Doodle
TTITLE10=Stop Watching Your Enemies
TTITLE11=Sure Had A Wonderful Time Last Night
TTITLE12=Come To Mama
TTITLE13=Time Will Tell
TTITLE14=Blues Hotel (with B.B. King)
EXTD=
EXTT0=
EXTT1=
EXTT2=
EXTT3=
EXTT4=
EXTT5=
EXTT6=
EXTT7=
EXTT8=
EXTT9=
EXTT10=
EXTT11=
EXTT12=
EXTT13=
EXTT14=
PLAYORDER=
